<svg width="800" height="152" viewBox="0 0 800 152" fill="none" xmlns="http://www.w3.org/2000/svg">
<path d="M38.906 58.417H33.094C32.9045 58.9536 32.5533 59.4182 32.0887 59.7468C31.6241 60.0755 31.0691 60.2519 30.5 60.2519C29.9309 60.2519 29.3759 60.0755 28.9113 59.7468C28.4467 59.4182 28.0955 58.9536 27.906 58.417H26.462C26.0742 58.4167 25.7023 58.2625 25.4281 57.9881C25.154 57.7138 25 57.3418 25 56.954V45.212C25 44.405 25.655 43.75 26.462 43.75H37.287C38.095 43.75 38.75 44.405 38.75 45.212V46.5H41.503C41.7889 46.5 42.0713 46.563 42.3301 46.6843C42.589 46.8056 42.818 46.9823 43.001 47.202L46.548 51.458C46.84 51.808 47 52.25 47 52.706V56.954C47 57.762 46.345 58.417 45.538 58.417H44.094C43.9045 58.9536 43.5533 59.4182 43.0887 59.7468C42.6241 60.0755 42.0691 60.2519 41.5 60.2519C40.9309 60.2519 40.3759 60.0755 39.9113 59.7468C39.4467 59.4182 39.0955 58.9536 38.906 58.417ZM38.906 56.583C39.0955 56.0464 39.4467 55.5818 39.9113 55.2532C40.3759 54.9245 40.9309 54.7481 41.5 54.7481C42.0691 54.7481 42.6241 54.9245 43.0887 55.2532C43.5533 55.5818 43.9045 56.0464 44.094 56.583H45.167V52.642L41.592 48.333H36.917V45.583H26.833V56.583H27.906C28.0955 56.0464 28.4467 55.5818 28.9113 55.2532C29.3759 54.9245 29.9309 54.7481 30.5 54.7481C31.0691 54.7481 31.6241 54.9245 32.0887 55.2532C32.5533 55.5818 32.9045 56.0464 33.094 56.583H38.906ZM36.916 48.333H38.75V56.583H36.917V48.333H36.916ZM30.5 58.417C30.7432 58.417 30.9764 58.3204 31.1484 58.1484C31.3204 57.9764 31.417 57.7432 31.417 57.5C31.417 57.2568 31.3204 57.0236 31.1484 56.8516C30.9764 56.6796 30.7432 56.583 30.5 56.583C30.2568 56.583 30.0236 56.6796 29.8516 56.8516C29.6796 57.0236 29.583 57.2568 29.583 57.5C29.583 57.7432 29.6796 57.9764 29.8516 58.1484C30.0236 58.3204 30.2568 58.417 30.5 58.417ZM41.5 58.417C41.7432 58.417 41.9764 58.3204 42.1484 58.1484C42.3204 57.9764 42.417 57.7432 42.417 57.5C42.417 57.2568 42.3204 57.0236 42.1484 56.8516C41.9764 56.6796 41.7432 56.583 41.5 56.583C41.2568 56.583 41.0236 56.6796 40.8516 56.8516C40.6796 57.0236 40.583 57.2568 40.583 57.5C40.583 57.7432 40.6796 57.9764 40.8516 58.1484C41.0236 58.3204 41.2568 58.417 41.5 58.417Z" fill="white"/>
<path d="M30 112L34 116L30 120" stroke="white" stroke-width="2" stroke-linecap="round" stroke-linejoin="round"/>
<path d="M65.414 116L72.707 108.707C72.8892 108.518 72.99 108.266 72.9877 108.004C72.9854 107.741 72.8802 107.491 72.6948 107.305C72.5094 107.12 72.2586 107.015 71.9964 107.012C71.7342 107.01 71.4816 107.111 71.293 107.293L63.293 115.293C63.1055 115.481 63.0002 115.735 63.0002 116C63.0002 116.265 63.1055 116.519 63.293 116.707L71.293 124.707C71.3852 124.803 71.4956 124.879 71.6176 124.931C71.7396 124.984 71.8708 125.011 72.0036 125.012C72.1364 125.013 72.2681 124.988 72.391 124.938C72.5138 124.888 72.6255 124.813 72.7194 124.719C72.8133 124.625 72.8875 124.514 72.9378 124.391C72.9881 124.268 73.0134 124.136 73.0123 124.004C73.0111 123.871 72.9835 123.74 72.9311 123.618C72.8787 123.496 72.8025 123.385 72.707 123.293L65.414 116Z" fill="black"/>
<path d="M110.586 116L103.293 108.707C103.111 108.518 103.01 108.266 103.012 108.004C103.015 107.741 103.12 107.491 103.305 107.305C103.491 107.12 103.741 107.015 104.004 107.012C104.266 107.01 104.518 107.111 104.707 107.293L112.707 115.293C112.894 115.481 113 115.735 113 116C113 116.265 112.894 116.519 112.707 116.707L104.707 124.707C104.615 124.803 104.504 124.879 104.382 124.931C104.26 124.984 104.129 125.011 103.996 125.012C103.864 125.013 103.732 124.988 103.609 124.938C103.486 124.888 103.374 124.813 103.281 124.719C103.187 124.625 103.112 124.514 103.062 124.391C103.012 124.268 102.987 124.136 102.988 124.004C102.989 123.871 103.016 123.74 103.069 123.618C103.121 123.496 103.197 123.385 103.293 123.293L110.586 116Z" fill="black"/>
<path d="M78.914 54.833V60.333H67.783C67.6618 60.3338 67.5417 60.3107 67.4295 60.265C67.3172 60.2194 67.2151 60.152 67.1289 60.0668C67.0427 59.9817 66.9742 59.8804 66.9272 59.7687C66.8802 59.657 66.8557 59.5372 66.855 59.416V49.333H65.928C65.8069 49.3338 65.6869 49.3107 65.5747 49.2651C65.4625 49.2195 65.3605 49.1523 65.2743 49.0672C65.1881 48.9821 65.1195 48.8809 65.0725 48.7694C65.0254 48.6578 65.0008 48.5381 65 48.417V46.426C65 45.94 65.195 45.473 65.543 45.13L67.24 43.454C67.588 43.11 68.06 42.917 68.552 42.917H81.857C82.349 42.917 82.821 43.11 83.169 43.454L84.865 45.13C85.213 45.473 85.408 45.94 85.408 46.426V48.416C85.4073 48.5371 85.3828 48.6568 85.3359 48.7685C85.289 48.8801 85.2205 48.9813 85.1344 49.0665C85.0483 49.1516 84.9463 49.219 84.8342 49.2647C84.7221 49.3105 84.6021 49.3337 84.481 49.333H83.553V53.157L81.698 51.324V49.334H68.71V58.5H71.493V54.833C71.493 52.808 73.154 51.167 75.203 51.167C77.253 51.167 78.914 52.808 78.914 54.833ZM66.855 47.5H83.552V46.426L81.856 44.75H68.55L66.855 46.426V47.5ZM73.348 58.5H77.058V54.833C77.058 53.821 76.228 53 75.204 53C74.179 53 73.348 53.82 73.348 54.833V58.5ZM84.453 59.416L85.514 61.797C85.5629 61.9074 85.5894 62.0264 85.592 62.1471C85.5946 62.2679 85.5732 62.3879 85.529 62.5003C85.4848 62.6126 85.4187 62.7151 85.3346 62.8018C85.2505 62.8884 85.15 62.9575 85.039 63.005C84.8143 63.1033 84.5599 63.1091 84.331 63.0212C84.102 62.9332 83.917 62.7585 83.816 62.535L82.716 60.068L81.091 61.819C81.0575 61.8548 81.0113 61.8761 80.9623 61.8781C80.9132 61.8802 80.8654 61.8629 80.829 61.83C80.8101 61.8129 80.795 61.7921 80.7847 61.7689C80.7744 61.7456 80.769 61.7204 80.769 61.695V53.442C80.7467 53.4204 80.7301 53.3936 80.7207 53.3639C80.7114 53.3343 80.7095 53.3028 80.7154 53.2723C80.7213 53.2418 80.7347 53.2132 80.7543 53.1892C80.774 53.1652 80.7994 53.1464 80.8281 53.1346C80.8568 53.1228 80.8881 53.1184 80.919 53.1217C80.9498 53.125 80.9794 53.1359 81.005 53.1536C81.0306 53.1712 81.0514 53.1949 81.0656 53.2225C81.0797 53.2502 81.0867 53.2809 81.086 53.312L86.946 59.104C86.9631 59.1209 86.9768 59.1411 86.986 59.1633C86.9953 59.1856 87.0001 59.2094 87.0001 59.2335C87.0001 59.2576 86.9953 59.2814 86.986 59.3037C86.9768 59.3259 86.9631 59.3461 86.946 59.363C86.9107 59.3974 86.8633 59.4164 86.814 59.416H84.453Z" fill="white"/>
<g clip-path="url(#clip0)">
<path fill-rule="evenodd" clip-rule="evenodd" d="M109.668 62.2361C105.856 62.1932 104 60.5275 104 57.1536V37.6856H106.769V56.6335C106.769 57.6055 107.059 58.3886 107.621 58.9556C108.148 59.483 108.838 59.7741 109.668 59.8016V62.2361Z" fill="#1A1918"/>
<path fill-rule="evenodd" clip-rule="evenodd" d="M113.069 62.2874V46.7733H110.703V44.4869H115.84V62.2874H113.069Z" fill="#1A1918"/>
<path fill-rule="evenodd" clip-rule="evenodd" d="M120.878 62.2484V47.1119H118.367V44.5054H120.9V44.346C120.9 42.2703 121.377 40.835 122.501 39.5405C123.562 38.3193 124.977 37.7004 126.722 37.7004C127.549 37.7004 128.429 37.84 129.4 38.1322L128.652 40.0816C128.045 39.889 127.498 39.7981 126.983 39.7981C125.987 39.7981 125.16 40.1793 124.519 40.9294C123.876 41.6679 123.553 42.612 123.553 43.7451C123.553 43.9161 123.553 43.9945 123.549 44.0689C123.549 44.1385 123.543 44.21 123.543 44.346V44.5054H127.179V47.1119H123.654V62.2484H120.878Z" fill="#1A1918"/>
<path fill-rule="evenodd" clip-rule="evenodd" d="M135.419 62.2402C133.295 62.2402 131.46 61.5041 129.975 60.0574C128.319 58.459 127.474 56.2716 127.474 53.5583C127.474 50.7391 128.335 48.4412 130.036 46.7437C131.559 45.232 133.379 44.4671 135.453 44.4671C137.874 44.4671 139.798 45.156 141.162 46.5178C142.483 47.8204 143.154 49.5828 143.154 51.7566C143.154 52.3903 143.083 52.9593 142.95 53.4801H130.393V53.6479C130.393 55.7261 130.969 57.3477 132.108 58.4712C133.119 59.4544 134.435 59.9531 136.018 59.9531C137.735 59.9531 139.205 59.4604 140.386 58.4893L141.516 60.4375C141.062 60.8689 140.374 61.2427 139.48 61.5657C138.269 62.0154 136.905 62.2402 135.419 62.2402ZM135.52 46.8462C134.105 46.8462 132.907 47.3159 131.951 48.2301C131.041 49.1081 130.513 50.2047 130.393 51.5005L130.377 51.6749H140.336V51.5138C140.336 50.2313 139.929 49.1362 139.121 48.2685C138.24 47.3242 137.03 46.8462 135.52 46.8462Z" fill="#1A1918"/>
<path fill-rule="evenodd" clip-rule="evenodd" d="M149.955 62.2402C148.215 62.2402 146.554 61.808 145.012 60.9586L145.975 58.3431C147.638 59.4104 148.999 59.9532 150.038 59.9532C152.036 59.9532 153.051 59.0863 153.051 57.3796C153.051 56.1657 152.09 55.1217 150.195 54.2732C148.768 53.6131 147.841 53.1317 147.359 52.8001C146.864 52.4632 146.459 52.1 146.112 51.6801C145.762 51.27 145.507 50.8388 145.33 50.3641C145.152 49.8965 145.07 49.4035 145.07 48.8562C145.07 47.4821 145.577 46.3987 146.561 45.6318C147.566 44.854 148.901 44.4589 150.526 44.4589C151.721 44.4589 153.264 44.8438 155.106 45.5955L154.342 48.0892C153.16 47.2 151.951 46.7504 150.75 46.7504C149.99 46.7504 149.34 46.9327 148.811 47.2982C148.264 47.6793 147.983 48.1705 147.983 48.7531C147.983 49.9328 148.656 50.8353 149.975 51.4377L152.179 52.45C153.504 53.0585 154.477 53.7525 155.077 54.5175C155.664 55.2824 155.962 56.2462 155.962 57.401C155.962 58.9106 155.432 60.1043 154.38 60.9485C153.331 61.808 151.844 62.2402 149.955 62.2402Z" fill="#1A1918"/>
<path fill-rule="evenodd" clip-rule="evenodd" d="M163.484 62.2402C162.151 62.2402 161.015 61.7384 160.107 60.7504C159.196 59.7638 158.73 58.4894 158.73 56.969V46.8965H156.697V44.5167H158.73V40.8166L161.498 39.7517V44.5167H166.287V46.8965H161.498V55.73C161.498 57.2244 161.751 58.3117 162.269 58.9627C162.801 59.6177 163.644 59.9531 164.786 59.9531C165.536 59.9531 166.316 59.7856 167.12 59.4402L167.518 61.7947C166.295 62.0918 164.94 62.2402 163.484 62.2402Z" fill="#1A1918"/>
<path fill-rule="evenodd" clip-rule="evenodd" d="M169.653 66.3447C170.898 66.3242 171.984 66.0093 172.889 65.4167C173.852 64.788 174.343 64.0022 174.343 63.0743C174.343 62.1013 174.168 61.1365 173.826 60.2002C173.466 59.2111 173.03 58.052 172.525 56.756L167.789 44.5551H170.587L175.93 58.6366L180.792 44.4834H183.586L176.147 65.017C175.752 66.0891 174.929 66.9905 173.699 67.6999C172.492 68.3905 171.139 68.7545 169.653 68.7809V66.3447Z" fill="#1A1918"/>
<path fill-rule="evenodd" clip-rule="evenodd" d="M190.916 62.2361C187.105 62.1932 185.25 60.5275 185.25 57.1536V37.6856H188.024V56.6335C188.024 57.6055 188.304 58.3834 188.867 58.9556C189.397 59.483 190.085 59.7741 190.916 59.8016V62.2361Z" fill="#1A1918"/>
<path fill-rule="evenodd" clip-rule="evenodd" d="M199.136 62.2402C196.997 62.2402 195.167 61.5041 193.682 60.049C192.028 58.4528 191.189 56.2699 191.189 53.5583C191.189 50.734 192.051 48.4412 193.753 46.7421C195.268 45.2306 197.094 44.4589 199.167 44.4589C201.588 44.4589 203.508 45.1524 204.872 46.5131C206.192 47.8204 206.863 49.5829 206.863 51.7544C206.863 52.3734 206.798 52.9494 206.66 53.4736H194.109V53.638C194.109 55.719 194.68 57.3449 195.817 58.4672C196.83 59.4502 198.146 59.9532 199.731 59.9532C201.451 59.9532 202.913 59.4604 204.094 58.4894L205.227 60.4375C204.775 60.8658 204.086 61.2388 203.186 61.5617C201.985 62.0124 200.625 62.2402 199.136 62.2402ZM199.33 46.7504C197.917 46.7504 196.713 47.2117 195.754 48.1325C194.843 49.0104 194.321 50.1055 194.194 51.3927L194.181 51.5721H204.146V51.4081C204.146 50.1285 203.739 49.0401 202.937 48.1705C202.048 47.2282 200.837 46.7504 199.33 46.7504Z" fill="#1A1918"/>
<path fill-rule="evenodd" clip-rule="evenodd" d="M116.614 39.282C116.614 41.3015 114.983 42.9307 112.968 42.9307C110.957 42.9307 109.323 41.3015 109.323 39.282C109.323 37.2661 110.957 35.6314 112.968 35.6314C114.983 35.6314 116.614 37.2661 116.614 39.282Z" fill="#DD488C"/>
<mask id="mask0" mask-type="alpha" maskUnits="userSpaceOnUse" x="113" y="34" width="7" height="7">
<path d="M119.889 34.1397H113.267V40.767H119.889V34.1397Z" fill="white"/>
</mask>
<g mask="url(#mask0)">
<path fill-rule="evenodd" clip-rule="evenodd" d="M119.889 37.4566C119.889 39.2871 118.404 40.767 116.575 40.767C114.748 40.767 113.267 39.2871 113.267 37.4566C113.267 35.6216 114.748 34.1397 116.575 34.1397C118.404 34.1397 119.889 35.6216 119.889 37.4566Z" fill="#EE9F2D"/>
</g>
<path fill-rule="evenodd" clip-rule="evenodd" d="M113.753 35.7194C113.442 36.2257 113.261 36.8144 113.261 37.4566C113.261 39.1921 114.595 40.621 116.297 40.7633C116.502 40.309 116.614 39.8078 116.614 39.2819C116.614 37.5348 115.391 36.081 113.753 35.7194Z" fill="#C6242A"/>
</g>
<g clip-path="url(#clip1)">
<path fill-rule="evenodd" clip-rule="evenodd" d="M228.211 59.9754C225.379 59.9435 224 58.7062 224 56.1998V41.7378H226.057V55.8135C226.057 56.5355 226.272 57.1172 226.69 57.5385C227.081 57.9302 227.594 58.1465 228.211 58.1669V59.9754Z" fill="#1A1918"/>
<path fill-rule="evenodd" clip-rule="evenodd" d="M230.737 60.0135V48.4888H228.98V46.7903H232.795V60.0135H230.737Z" fill="#1A1918"/>
<path fill-rule="evenodd" clip-rule="evenodd" d="M236.538 59.9845V48.7403H234.673V46.804H236.554V46.6856C236.554 45.1436 236.908 44.0774 237.743 43.1158C238.532 42.2086 239.583 41.7488 240.879 41.7488C241.494 41.7488 242.147 41.8525 242.869 42.0696L242.313 43.5177C241.862 43.3746 241.455 43.3072 241.073 43.3072C240.333 43.3072 239.718 43.5903 239.243 44.1476C238.765 44.6961 238.525 45.3975 238.525 46.2392C238.525 46.3662 238.525 46.4245 238.522 46.4798C238.522 46.5315 238.518 46.5846 238.518 46.6856V46.804H241.218V48.7403H238.6V59.9845H236.538Z" fill="#1A1918"/>
<path fill-rule="evenodd" clip-rule="evenodd" d="M247.34 59.9784C245.762 59.9784 244.399 59.4316 243.295 58.3569C242.065 57.1696 241.438 55.5446 241.438 53.5291C241.438 51.4348 242.077 49.7278 243.341 48.4668C244.472 47.3438 245.825 46.7756 247.365 46.7756C249.164 46.7756 250.593 47.2873 251.606 48.299C252.587 49.2666 253.086 50.5758 253.086 52.1906C253.086 52.6614 253.033 53.0841 252.934 53.4709H243.606V53.5956C243.606 55.1394 244.034 56.344 244.88 57.1786C245.631 57.909 246.609 58.2795 247.785 58.2795C249.06 58.2795 250.152 57.9135 251.029 57.1921L251.869 58.6393C251.532 58.9598 251.021 59.2375 250.357 59.4774C249.457 59.8115 248.443 59.9784 247.34 59.9784ZM247.415 48.5429C246.364 48.5429 245.474 48.8918 244.764 49.571C244.088 50.2232 243.695 51.0378 243.606 52.0004L243.594 52.1299H250.993V52.0103C250.993 51.0576 250.69 50.2441 250.09 49.5995C249.435 48.898 248.536 48.5429 247.415 48.5429Z" fill="#1A1918"/>
<path fill-rule="evenodd" clip-rule="evenodd" d="M258.138 59.9784C256.846 59.9784 255.611 59.6573 254.466 59.0264L255.181 57.0834C256.417 57.8763 257.427 58.2795 258.199 58.2795C259.684 58.2795 260.438 57.6355 260.438 56.3677C260.438 55.466 259.724 54.6904 258.316 54.0601C257.257 53.5697 256.567 53.2121 256.21 52.9657C255.842 52.7155 255.541 52.4457 255.283 52.1337C255.023 51.8292 254.833 51.5088 254.702 51.1562C254.57 50.8088 254.509 50.4426 254.509 50.036C254.509 49.0152 254.885 48.2104 255.617 47.6408C256.363 47.0629 257.355 46.7695 258.562 46.7695C259.45 46.7695 260.596 47.0554 261.965 47.6138L261.397 49.4662C260.519 48.8057 259.62 48.4717 258.728 48.4717C258.164 48.4717 257.681 48.6072 257.288 48.8786C256.882 49.1618 256.673 49.5266 256.673 49.9594C256.673 50.8358 257.173 51.5062 258.153 51.9537L259.79 52.7057C260.774 53.1577 261.497 53.6733 261.943 54.2416C262.379 54.8098 262.6 55.5257 262.6 56.3836C262.6 57.505 262.207 58.3918 261.425 59.0189C260.646 59.6573 259.541 59.9784 258.138 59.9784Z" fill="#1A1918"/>
<path fill-rule="evenodd" clip-rule="evenodd" d="M268.188 59.9784C267.198 59.9784 266.354 59.6056 265.68 58.8717C265.003 58.1388 264.657 57.1921 264.657 56.0627V48.5803H263.146V46.8124H264.657V44.0638L266.713 43.2727V46.8124H270.27V48.5803H266.713V55.1423C266.713 56.2524 266.901 57.0601 267.285 57.5437C267.681 58.0303 268.307 58.2795 269.155 58.2795C269.712 58.2795 270.292 58.155 270.889 57.8984L271.185 59.6475C270.276 59.8682 269.269 59.9784 268.188 59.9784Z" fill="#1A1918"/>
<path fill-rule="evenodd" clip-rule="evenodd" d="M272.771 63.0275C273.696 63.0122 274.502 62.7783 275.175 62.3381C275.89 61.8711 276.255 61.2874 276.255 60.5981C276.255 59.8752 276.125 59.1586 275.871 58.463C275.603 57.7283 275.28 56.8672 274.904 55.9045L271.386 46.8409H273.464L277.433 57.3014L281.045 46.7877H283.121L277.595 62.0412C277.302 62.8376 276.69 63.5073 275.776 64.0343C274.88 64.5472 273.875 64.8177 272.771 64.8373V63.0275Z" fill="#1A1918"/>
<path fill-rule="evenodd" clip-rule="evenodd" d="M288.566 59.9754C285.735 59.9435 284.357 58.7062 284.357 56.1998V41.7378H286.418V55.8135C286.418 56.5355 286.626 57.1134 287.044 57.5385C287.438 57.9302 287.949 58.1465 288.566 58.1669V59.9754Z" fill="#1A1918"/>
<path fill-rule="evenodd" clip-rule="evenodd" d="M294.672 59.9784C293.083 59.9784 291.724 59.4316 290.621 58.3507C289.393 57.1649 288.769 55.5434 288.769 53.529C288.769 51.431 289.409 49.7278 290.674 48.4655C291.799 47.3427 293.155 46.7695 294.695 46.7695C296.494 46.7695 297.92 47.2846 298.933 48.2954C299.914 49.2666 300.412 50.5758 300.412 52.189C300.412 52.6488 300.365 53.0767 300.262 53.466H290.938V53.5882C290.938 55.1341 291.362 56.3419 292.207 57.1756C292.959 57.9059 293.937 58.2795 295.114 58.2795C296.392 58.2795 297.478 57.9135 298.356 57.1921L299.197 58.6393C298.861 58.9575 298.349 59.2345 297.681 59.4744C296.789 59.8092 295.779 59.9784 294.672 59.9784ZM294.816 48.4717C293.767 48.4717 292.872 48.8144 292.16 49.4984C291.484 50.1505 291.095 50.9641 291.001 51.9203L290.992 52.0535H298.394V51.9317C298.394 50.9812 298.092 50.1727 297.496 49.5266C296.835 48.8267 295.936 48.4717 294.816 48.4717Z" fill="#1A1918"/>
<path fill-rule="evenodd" clip-rule="evenodd" d="M233.37 42.9238C233.37 44.424 232.159 45.6342 230.662 45.6342C229.168 45.6342 227.954 44.424 227.954 42.9238C227.954 41.4262 229.168 40.2119 230.662 40.2119C232.159 40.2119 233.37 41.4262 233.37 42.9238Z" fill="#DD488C"/>
<mask id="mask1" mask-type="alpha" maskUnits="userSpaceOnUse" x="230" y="39" width="6" height="6">
<path d="M235.803 39.1038H230.884V44.0269H235.803V39.1038Z" fill="white"/>
</mask>
<g mask="url(#mask1)">
<path fill-rule="evenodd" clip-rule="evenodd" d="M235.803 41.5678C235.803 42.9276 234.7 44.0269 233.341 44.0269C231.984 44.0269 230.884 42.9276 230.884 41.5678C230.884 40.2047 231.984 39.1038 233.341 39.1038C234.7 39.1038 235.803 40.2047 235.803 41.5678Z" fill="#EE9F2D"/>
</g>
<path fill-rule="evenodd" clip-rule="evenodd" d="M231.245 40.2773C231.014 40.6534 230.88 41.0907 230.88 41.5677C230.88 42.857 231.871 43.9184 233.135 44.0242C233.287 43.6867 233.37 43.3143 233.37 42.9237C233.37 41.6259 232.462 40.5458 231.245 40.2773Z" fill="#C6242A"/>
</g>
<path d="M369.5 57.418L368.92 48.948C368.91 48.102 368.118 47.415 367.145 47.415H354.855C353.882 47.415 353.09 48.102 353.079 48.949L352.501 57.418L352.5 58.447C352.5 59.303 353.296 60 354.276 60H367.725C368.704 60 369.5 59.303 369.5 58.447V57.418Z" fill="black"/>
<path d="M357 48C357.504 44.667 358.831 43 360.981 43C363.131 43 364.471 44.667 365 48" stroke="black" stroke-width="2"/>
<path d="M328.185 54.42C328.715 53.7247 329.001 52.8743 329 52C329 51.0513 328.663 50.1334 328.048 49.4104C327.434 48.6874 326.583 48.2062 325.647 48.0528C324.711 47.8994 323.75 48.0837 322.937 48.5729C322.125 49.0622 321.512 49.8244 321.209 50.7235C320.906 51.6226 320.933 52.6 321.284 53.4813C321.636 54.3626 322.289 55.0903 323.127 55.5346C323.965 55.9788 324.934 56.1106 325.861 55.9064C326.787 55.7023 327.611 55.1754 328.185 54.42ZM330.275 54.861L332.707 57.293C332.889 57.4816 332.99 57.7342 332.988 57.9964C332.985 58.2586 332.88 58.5094 332.695 58.6948C332.509 58.8802 332.259 58.9854 331.996 58.9877C331.734 58.99 331.482 58.8892 331.293 58.707L329.031 56.445C327.916 57.4545 326.463 58.0087 324.96 57.9978C323.456 57.9868 322.011 57.4116 320.911 56.3861C319.811 55.3605 319.137 53.9593 319.021 52.46C318.905 50.9607 319.357 49.4725 320.286 48.2902C321.215 47.1079 322.555 46.3176 324.039 46.0759C325.523 45.8342 327.044 46.1587 328.3 46.985C329.557 47.8114 330.457 49.0794 330.823 50.538C331.189 51.9966 330.994 53.5395 330.276 54.861H330.275Z" fill="#929391"/>
<path d="M395.003 55.999L399.003 52.002L395.003 48" stroke="#C8C9C6" stroke-width="2" stroke-linecap="round" stroke-linejoin="round"/>
<path d="M569.766 24.9655H423.982C422.87 24.9655 421.968 25.8647 421.968 26.9738V77.0262C421.968 78.1353 422.87 79.0345 423.982 79.0345H569.766C570.879 79.0345 571.78 78.1353 571.78 77.0262V26.9738C571.78 25.8647 570.879 24.9655 569.766 24.9655Z" fill="#101726" stroke="#2C303F" stroke-width="1.04"/>
<path d="M473.21 60.9619H467.251L465.819 65.1745H463.295L468.939 49.5881H471.562L477.206 65.1745H474.639L473.21 60.9619ZM467.867 59.0174H472.591L470.263 52.1806H470.198L467.867 59.0174ZM489.396 59.4934C489.396 63.0243 487.5 65.2932 484.639 65.2932C483.914 65.331 483.193 65.1645 482.559 64.8127C481.925 64.461 481.403 63.9382 481.053 63.3043H480.998V68.9332H478.659V53.8113H480.924V55.7018H480.966C481.333 55.0709 481.864 54.5509 482.503 54.1971C483.142 53.8433 483.865 53.6689 484.596 53.6926C487.489 53.6926 489.396 55.9721 489.396 59.4943V59.4934ZM486.991 59.4934C486.991 57.1926 485.798 55.6796 483.979 55.6796C482.191 55.6796 480.989 57.2244 480.989 59.4934C480.989 61.7826 482.191 63.3168 483.979 63.3168C485.798 63.3168 486.99 61.8145 486.99 59.4934H486.991ZM501.94 59.4934C501.94 63.0243 500.045 65.2932 497.184 65.2932C496.459 65.331 495.739 65.1645 495.104 64.8127C494.47 64.461 493.948 63.9382 493.598 63.3043H493.544V68.9332H491.204V53.8113H493.469V55.7018H493.512C493.878 55.0709 494.409 54.5509 495.048 54.1971C495.687 53.8433 496.411 53.6689 497.141 53.6926C500.034 53.6926 501.94 55.9721 501.94 59.4943V59.4934ZM499.536 59.4934C499.536 57.1926 498.344 55.6796 496.525 55.6796C494.736 55.6796 493.533 57.2244 493.533 59.4934C493.533 61.7826 494.736 63.3168 496.525 63.3168C498.344 63.3168 499.536 61.8145 499.536 59.4934ZM510.232 60.8316C510.406 62.3764 511.911 63.3921 513.969 63.3921C515.941 63.3921 517.36 62.3774 517.36 60.9832C517.36 59.7734 516.504 59.0492 514.478 58.553L512.453 58.0663C509.581 57.375 508.249 56.0368 508.249 53.8644C508.249 51.1754 510.6 49.3274 513.937 49.3274C517.241 49.3274 519.506 51.1754 519.581 53.8644H517.22C517.079 52.309 515.789 51.3695 513.904 51.3695C512.019 51.3695 510.729 52.3196 510.729 53.7022C510.729 54.8048 511.553 55.4527 513.569 55.949L515.291 56.3709C518.499 57.1269 519.832 58.412 519.832 60.6916C519.832 63.6074 517.502 65.4342 513.796 65.4342C510.33 65.4342 507.989 63.6509 507.837 60.8316H510.232ZM524.88 51.1214V53.8103H527.049V55.6574H524.88V61.9226C524.88 62.8959 525.315 63.3497 526.267 63.3497C526.525 63.3448 526.781 63.3265 527.037 63.2956V65.131C526.608 65.2112 526.173 65.2469 525.738 65.2392C523.43 65.2392 522.53 64.375 522.53 62.1717V55.6574H520.873V53.8103H522.53V51.1214H524.881H524.88ZM528.303 59.4924C528.303 55.9171 530.415 53.6703 533.708 53.6703C537.014 53.6703 539.116 55.9171 539.116 59.4924C539.116 63.0783 537.024 65.3145 533.708 65.3145C530.394 65.3145 528.303 63.0783 528.303 59.4924ZM536.732 59.4924C536.732 57.04 535.605 55.5927 533.708 55.5927C531.813 55.5927 530.688 57.0506 530.688 59.4934C530.688 61.9554 531.813 63.3921 533.708 63.3921C535.605 63.3921 536.732 61.9554 536.732 59.4934V59.4924ZM541.045 53.8103H543.276V55.7443H543.33C543.481 55.1402 543.836 54.6064 544.336 54.2326C544.835 53.8588 545.448 53.6677 546.072 53.6916C546.342 53.6906 546.61 53.7206 546.873 53.7785V55.9606C546.533 55.8568 546.178 55.8092 545.822 55.8196C545.482 55.8059 545.143 55.8656 544.829 55.9948C544.514 56.1239 544.232 56.3194 544 56.5678C543.769 56.8161 543.594 57.1116 543.487 57.4337C543.381 57.7559 543.346 58.0972 543.384 58.4342V65.1735H541.045V53.8113V53.8103ZM557.661 61.8367C557.346 63.9 555.33 65.3154 552.752 65.3154C549.437 65.3154 547.379 63.1006 547.379 59.5465C547.379 55.9828 549.448 53.6703 552.654 53.6703C555.808 53.6703 557.79 55.8302 557.79 59.2761V60.0756H549.74V60.2165C549.703 60.6348 549.756 61.0561 549.894 61.4525C550.033 61.849 550.255 62.2114 550.545 62.5158C550.835 62.8202 551.186 63.0595 551.576 63.2179C551.966 63.3764 552.386 63.4502 552.806 63.4346C553.359 63.4865 553.914 63.3591 554.389 63.0712C554.863 62.7833 555.232 62.3503 555.44 61.8367H557.661ZM549.751 58.4448H555.45C555.471 58.0687 555.414 57.6923 555.282 57.3392C555.151 56.9862 554.947 56.6641 554.684 56.3933C554.422 56.1225 554.106 55.9087 553.757 55.7654C553.407 55.6222 553.032 55.5525 552.654 55.5608C552.273 55.5585 551.896 55.6315 551.543 55.7755C551.191 55.9195 550.87 56.1316 550.601 56.3998C550.331 56.6679 550.117 56.9866 549.971 57.3376C549.825 57.6887 549.751 58.0649 549.752 58.4448H549.751ZM467.574 37.8552C468.064 37.8202 468.557 37.8941 469.015 38.0717C469.473 38.2493 469.886 38.526 470.224 38.8821C470.563 39.2381 470.817 39.6645 470.97 40.1306C471.123 40.5967 471.17 41.0907 471.109 41.5772C471.109 43.9698 469.811 45.3447 467.575 45.3447H464.861V37.8552H467.574ZM466.028 44.2855H467.444C467.795 44.3062 468.145 44.2487 468.47 44.1173C468.796 43.9859 469.088 43.7838 469.325 43.5258C469.562 43.2679 469.738 42.9604 469.842 42.6258C469.945 42.2913 469.972 41.938 469.921 41.5917C469.968 41.2468 469.939 40.8956 469.834 40.5634C469.73 40.2311 469.553 39.9261 469.316 39.6701C469.079 39.4141 468.789 39.2135 468.465 39.0827C468.141 38.9519 467.793 38.894 467.444 38.9134H466.028V44.2855ZM472.427 42.5167C472.393 42.1457 472.436 41.7716 472.554 41.4183C472.673 41.065 472.864 40.7402 473.116 40.4648C473.367 40.1894 473.674 39.9694 474.016 39.8188C474.357 39.6683 474.727 39.5905 475.1 39.5905C475.474 39.5905 475.843 39.6683 476.185 39.8188C476.527 39.9694 476.833 40.1894 477.085 40.4648C477.337 40.7402 477.528 41.065 477.646 41.4183C477.765 41.7716 477.808 42.1457 477.773 42.5167C477.807 42.8873 477.764 43.2609 477.645 43.6136C477.526 43.9663 477.334 44.2904 477.083 44.5653C476.831 44.8401 476.525 45.0597 476.184 45.2099C475.842 45.3601 475.473 45.4377 475.1 45.4377C474.727 45.4377 474.358 45.3601 474.016 45.2099C473.675 45.0597 473.369 44.8401 473.117 44.5653C472.865 44.2904 472.674 43.9663 472.555 43.6136C472.436 43.2609 472.392 42.8873 472.426 42.5167H472.427ZM476.622 42.5167C476.622 41.2905 476.07 40.575 475.102 40.575C474.129 40.575 473.582 41.2914 473.582 42.5157C473.582 43.7516 474.129 44.4622 475.102 44.4622C476.07 44.4622 476.622 43.7468 476.622 42.5167ZM484.881 45.3457H483.72L482.548 41.1823H482.46L481.294 45.3447H480.143L478.581 39.6926H479.716L480.732 44.0055H480.815L481.98 39.6926H483.054L484.219 44.0055H484.308L485.318 39.6926H486.437L484.881 45.3447V45.3457ZM487.751 39.6926H488.829V40.5905H488.912C489.054 40.268 489.293 39.9977 489.596 39.8172C489.899 39.6367 490.251 39.555 490.603 39.5835C490.879 39.5628 491.156 39.6043 491.414 39.7049C491.671 39.8055 491.903 39.9626 492.091 40.1645C492.28 40.3665 492.42 40.6081 492.502 40.8715C492.585 41.135 492.606 41.4134 492.566 41.6863V45.3447H491.447V41.9654C491.447 41.0578 491.051 40.6059 490.224 40.6059C490.037 40.5972 489.85 40.629 489.676 40.6991C489.502 40.7692 489.345 40.876 489.217 41.0121C489.088 41.1482 488.991 41.3104 488.931 41.4876C488.871 41.6648 488.851 41.8528 488.87 42.0388V45.3447H487.751V39.6926ZM494.348 37.4863H495.467V45.3457H494.347V37.4863H494.348ZM497.022 42.5167C496.988 42.1461 497.032 41.7725 497.151 41.4198C497.27 41.0671 497.461 40.7429 497.713 40.4681C497.965 40.1932 498.271 39.9737 498.612 39.8235C498.954 39.6733 499.323 39.5957 499.696 39.5957C500.069 39.5957 500.438 39.6733 500.779 39.8235C501.121 39.9737 501.427 40.1932 501.679 40.4681C501.93 40.7429 502.122 41.0671 502.241 41.4198C502.359 41.7725 502.403 42.1461 502.369 42.5167C502.405 42.8881 502.362 43.2629 502.244 43.6169C502.126 43.971 501.935 44.2964 501.683 44.5725C501.431 44.8486 501.124 45.0692 500.782 45.2201C500.44 45.371 500.07 45.449 499.696 45.449C499.322 45.449 498.952 45.371 498.609 45.2201C498.267 45.0692 497.96 44.8486 497.709 44.5725C497.457 44.2964 497.266 43.971 497.148 43.6169C497.03 43.2629 496.987 42.8881 497.022 42.5167ZM501.218 42.5167C501.218 41.2905 500.666 40.575 499.698 40.575C498.725 40.575 498.178 41.2914 498.178 42.5157C498.178 43.7516 498.725 44.4622 499.698 44.4622C500.666 44.4622 501.218 43.7468 501.218 42.5167ZM503.548 43.7468C503.548 42.7291 504.308 42.1421 505.656 42.059L507.192 41.9712V41.4826C507.192 40.8859 506.795 40.549 506.031 40.549C505.406 40.549 504.974 40.7778 504.85 41.1766H503.766C503.881 40.2062 504.797 39.5835 506.082 39.5835C507.503 39.5835 508.305 40.2883 508.305 41.4826V45.3447H507.229V44.5501H507.139C506.96 44.8351 506.708 45.0675 506.409 45.2235C506.11 45.3796 505.775 45.4537 505.437 45.4383C505.2 45.4629 504.959 45.4375 504.732 45.3637C504.504 45.29 504.295 45.1696 504.117 45.0103C503.939 44.8509 503.796 44.6562 503.698 44.4386C503.6 44.221 503.549 43.9853 503.548 43.7468ZM507.192 43.264V42.7909L505.807 42.8788C505.027 42.9309 504.673 43.1964 504.673 43.6946C504.673 44.2035 505.115 44.4989 505.724 44.4989C505.902 44.5169 506.082 44.499 506.254 44.4461C506.425 44.3933 506.584 44.3066 506.721 44.1913C506.858 44.076 506.97 43.9344 507.051 43.7749C507.132 43.6155 507.18 43.4414 507.192 43.263V43.264ZM509.776 42.5167C509.776 40.7305 510.696 39.5989 512.128 39.5989C512.483 39.5826 512.834 39.6671 513.142 39.8427C513.45 40.0183 513.702 40.2777 513.867 40.5905H513.95V37.4863H515.07V45.3457H513.998V44.4516H513.909C513.731 44.7623 513.471 45.0185 513.157 45.1924C512.843 45.3663 512.488 45.4514 512.129 45.4383C510.687 45.4383 509.776 44.3068 509.776 42.5167ZM510.932 42.5167C510.932 43.7149 511.498 44.4361 512.446 44.4361C513.389 44.4361 513.972 43.7043 513.972 42.5215C513.972 41.3436 513.383 40.6011 512.446 40.6011C511.504 40.6011 510.932 41.3272 510.932 42.5167ZM519.698 42.5167C519.664 42.1461 519.708 41.7725 519.827 41.4198C519.946 41.0671 520.137 40.7429 520.389 40.4681C520.641 40.1932 520.947 39.9737 521.288 39.8235C521.63 39.6733 521.999 39.5957 522.372 39.5957C522.745 39.5957 523.114 39.6733 523.455 39.8235C523.797 39.9737 524.103 40.1932 524.355 40.4681C524.606 40.7429 524.798 41.0671 524.917 41.4198C525.035 41.7725 525.079 42.1461 525.045 42.5167C525.079 42.8873 525.035 43.2609 524.917 43.6136C524.798 43.9663 524.606 44.2904 524.355 44.5653C524.103 44.8401 523.797 45.0597 523.455 45.2099C523.114 45.3601 522.745 45.4377 522.372 45.4377C521.999 45.4377 521.63 45.3601 521.288 45.2099C520.947 45.0597 520.641 44.8401 520.389 44.5653C520.137 44.2904 519.946 43.9663 519.827 43.6136C519.708 43.2609 519.664 42.8873 519.698 42.5167ZM523.894 42.5167C523.894 41.2905 523.342 40.575 522.374 40.575C521.401 40.575 520.854 41.2914 520.854 42.5157C520.854 43.7516 521.401 44.4622 522.374 44.4622C523.342 44.4622 523.894 43.7468 523.894 42.5167ZM526.547 39.6926H527.624V40.5905H527.707C527.849 40.268 528.088 39.9977 528.391 39.8172C528.694 39.6367 529.046 39.555 529.398 39.5835C529.674 39.5628 529.951 39.6043 530.209 39.7049C530.466 39.8055 530.698 39.9626 530.886 40.1645C531.075 40.3665 531.215 40.6081 531.297 40.8715C531.379 41.135 531.401 41.4134 531.361 41.6863V45.3447H530.242V41.9654C530.242 41.0578 529.846 40.6059 529.019 40.6059C528.831 40.5972 528.644 40.629 528.471 40.6991C528.297 40.7692 528.14 40.876 528.012 41.0121C527.883 41.1482 527.786 41.3104 527.726 41.4876C527.666 41.6648 527.645 41.8528 527.665 42.0388V45.3447H526.546V39.6926H526.547ZM537.683 38.2858V39.7186H538.91V40.6581H537.683V43.5643C537.683 44.1561 537.927 44.4159 538.484 44.4159C538.627 44.4159 538.769 44.4062 538.91 44.3898V45.3186C538.71 45.3547 538.506 45.3741 538.302 45.3766C537.057 45.3766 536.563 44.9392 536.563 43.8501V40.6581H535.662V39.7186H536.563V38.2858H537.683ZM540.439 37.4863H541.548V40.6011H541.636C541.784 40.2754 542.03 40.0034 542.34 39.8222C542.649 39.6409 543.007 39.5593 543.365 39.5883C543.639 39.5737 543.913 39.6195 544.168 39.7226C544.422 39.8257 544.651 39.9836 544.837 40.1848C545.024 40.3861 545.163 40.6258 545.246 40.8871C545.329 41.1483 545.353 41.4245 545.317 41.696V45.3457H544.197V41.9712C544.197 41.0684 543.775 40.6108 542.985 40.6108C542.793 40.595 542.6 40.6213 542.419 40.6878C542.237 40.7543 542.073 40.8595 541.937 40.996C541.801 41.1325 541.697 41.2969 541.631 41.4779C541.565 41.6588 541.54 41.8519 541.557 42.0436V45.3447H540.439V37.4863ZM551.84 43.8192C551.688 44.3357 551.358 44.7824 550.909 45.0812C550.461 45.38 549.92 45.5119 549.384 45.4538C549.01 45.4636 548.639 45.3922 548.297 45.2447C547.954 45.0972 547.647 44.8771 547.398 44.5996C547.149 44.3221 546.963 43.9939 546.854 43.6378C546.744 43.2816 546.714 42.906 546.765 42.537C546.715 42.1667 546.746 41.7901 546.855 41.4326C546.963 41.0752 547.148 40.7452 547.396 40.4651C547.644 40.1851 547.949 39.9614 548.291 39.8093C548.633 39.6571 549.004 39.5801 549.379 39.5835C550.957 39.5835 551.908 40.6581 551.908 42.4327V42.8218H547.904V42.8846C547.887 43.0921 547.913 43.3009 547.981 43.4978C548.049 43.6946 548.158 43.875 548.3 44.0275C548.443 44.18 548.615 44.3011 548.807 44.3831C548.999 44.4651 549.206 44.5062 549.415 44.5037C549.682 44.5357 549.954 44.4876 550.194 44.3655C550.434 44.2434 550.632 44.0529 550.763 43.8182H551.84V43.8192ZM547.904 41.9972H550.768C550.782 41.8076 550.757 41.617 550.692 41.4379C550.628 41.2588 550.527 41.0951 550.396 40.9572C550.264 40.8193 550.106 40.7104 549.929 40.6375C549.753 40.5645 549.564 40.5291 549.373 40.5335C549.18 40.5311 548.988 40.5672 548.808 40.6399C548.629 40.7126 548.466 40.8203 548.33 40.9567C548.193 41.0931 548.085 41.2554 548.012 41.4341C547.939 41.6128 547.902 41.8043 547.904 41.9972ZM451.136 52.3766C451.149 51.3289 451.429 50.3017 451.948 49.3906C452.466 48.4795 453.208 47.7141 454.103 47.1657C453.534 46.3558 452.784 45.6894 451.912 45.2193C451.039 44.7491 450.069 44.4883 449.078 44.4574C446.964 44.2363 444.915 45.7193 443.838 45.7193C442.739 45.7193 441.08 44.4796 439.294 44.5163C438.139 44.5535 437.013 44.8884 436.027 45.4884C435.04 46.0884 434.226 46.933 433.663 47.94C431.229 52.1429 433.045 58.3193 435.377 61.7179C436.544 63.3805 437.908 65.2392 439.692 65.1726C441.439 65.1011 442.09 64.0622 444.199 64.0622C446.287 64.0622 446.899 65.1725 448.72 65.131C450.593 65.1011 451.774 63.4607 452.9 61.7807C453.738 60.5954 454.383 59.2855 454.811 57.8993C453.722 57.4403 452.793 56.6718 452.14 55.6897C451.486 54.7076 451.137 53.5553 451.136 52.3766ZM447.697 42.2232C448.719 41.0006 449.222 39.4287 449.101 37.8417C447.54 38.0052 446.098 38.7491 445.062 39.9252C444.556 40.4996 444.168 41.1679 443.921 41.8919C443.674 42.6159 443.572 43.3814 443.622 44.1446C444.403 44.1527 445.175 43.9841 445.881 43.6513C446.587 43.3184 447.208 42.8301 447.698 42.2232H447.697Z" fill="white"/>
<path d="M762.773 24.9663H596.976C595.866 24.9663 594.966 25.8654 594.966 26.9746V77.027C594.966 78.1361 595.866 79.0353 596.976 79.0353H762.773C763.883 79.0353 764.782 78.1361 764.782 77.027V26.9746C764.782 25.8654 763.883 24.9663 762.773 24.9663Z" fill="#101726" stroke="#2C303F" stroke-width="1.04"/>
<path d="M680.679 54.1966C679.264 54.2022 677.908 54.7688 676.911 55.772C675.913 56.7753 675.355 58.1331 675.358 59.5474C675.363 60.9619 675.93 62.3165 676.934 63.3136C677.938 64.3107 679.298 64.8689 680.713 64.8655C682.129 64.8642 683.486 64.3018 684.486 63.3016C685.487 62.3015 686.05 60.9453 686.051 59.531C686.061 58.8252 685.929 58.1247 685.662 57.4711C685.395 56.8175 684.999 56.2243 684.498 55.7269C683.997 55.2291 683.4 54.8372 682.744 54.5743C682.088 54.3114 681.386 54.1829 680.679 54.1966ZM680.679 62.7694C680.03 62.8148 679.382 62.6642 678.819 62.3371C678.257 62.01 677.806 61.5214 677.524 60.9349C677.244 60.3486 677.146 59.6914 677.245 59.049C677.344 58.4067 677.634 57.8088 678.077 57.3335C678.521 56.8576 679.098 56.526 679.732 56.3815C680.367 56.2371 681.031 56.2865 681.637 56.5234C682.243 56.7601 682.764 57.1736 683.131 57.71C683.499 58.2464 683.696 58.8809 683.698 59.531C683.718 59.9429 683.656 60.3545 683.514 60.7418C683.372 61.129 683.154 61.4839 682.873 61.7855C682.591 62.0874 682.252 62.3299 681.876 62.4989C681.499 62.6679 681.092 62.7598 680.679 62.7694ZM668.968 54.1966C667.552 54.1989 666.194 54.763 665.194 55.7649C664.194 56.7668 663.633 58.1246 663.634 59.5397C663.637 60.9549 664.203 62.3108 665.206 63.3095C666.21 64.3081 667.569 64.8678 668.985 64.8655C670.401 64.8653 671.759 64.3032 672.761 63.303C673.763 62.3027 674.326 60.946 674.327 59.531C674.337 58.8253 674.205 58.1248 673.938 57.4712C673.672 56.8176 673.276 56.2244 672.775 55.7269C672.273 55.229 671.677 54.837 671.021 54.5741C670.365 54.3112 669.662 54.1828 668.955 54.1966H668.968ZM668.968 62.7694C668.318 62.8173 667.669 62.6688 667.105 62.3434C666.541 62.018 666.088 61.5306 665.805 60.9445C665.522 60.3587 665.423 59.7013 665.52 59.0582C665.617 58.415 665.905 57.816 666.348 57.3393C666.792 56.8621 667.368 56.5291 668.003 56.3836C668.639 56.2381 669.303 56.2868 669.91 56.5234C670.517 56.7595 671.038 57.1727 671.407 57.7091C671.775 58.2456 671.973 58.8805 671.975 59.531C671.995 59.9429 671.933 60.3545 671.791 60.7418C671.649 61.129 671.431 61.4839 671.15 61.7855C670.868 62.0874 670.529 62.3299 670.152 62.4989C669.776 62.6679 669.369 62.7598 668.956 62.7694H668.968ZM655.018 55.8408V58.1001H660.452C660.367 59.1645 659.924 60.1687 659.195 60.9494C658.651 61.5021 657.997 61.935 657.276 62.2204C656.554 62.5057 655.781 62.6371 655.006 62.6062C654.213 62.6068 653.429 62.4515 652.696 62.1491C651.964 61.8466 651.299 61.403 650.738 60.8435C650.177 60.284 649.732 59.6197 649.428 58.8884C649.125 58.1571 648.968 57.3732 648.968 56.5814C648.968 55.7896 649.125 55.0057 649.428 54.2744C649.732 53.5431 650.177 52.8787 650.738 52.3192C651.299 51.7598 651.964 51.3161 652.696 51.0137C653.429 50.7113 654.213 50.5559 655.006 50.5566C656.537 50.5315 658.016 51.1137 659.119 52.1757L660.717 50.5817C659.972 49.8297 659.084 49.2345 658.106 48.8313C657.127 48.4282 656.077 48.2252 655.018 48.2345C653.524 48.1762 652.042 48.5215 650.727 49.2341C649.413 49.9467 648.315 51.0003 647.549 52.2839C646.784 53.5666 646.381 55.0319 646.381 56.5249C646.381 58.0179 646.784 59.4832 647.549 60.7659C648.315 62.0495 649.413 63.1031 650.727 63.8157C652.042 64.5283 653.524 64.8736 655.018 64.8153C656.095 64.8638 657.169 64.6817 658.169 64.2812C659.169 63.8807 660.071 63.2711 660.816 62.4932C662.134 61.0494 662.838 59.1498 662.78 57.1964C662.784 56.7207 662.742 56.2457 662.654 55.7781L655.018 55.8408ZM712.013 57.5981C711.685 56.6346 711.071 55.7935 710.253 55.1861C709.436 54.5787 708.453 54.2336 707.435 54.1966C706.747 54.1951 706.066 54.3345 705.434 54.6062C704.802 54.8778 704.233 55.276 703.761 55.7761C703.29 56.2758 702.926 56.8669 702.692 57.5128C702.459 58.1587 702.361 58.8456 702.403 59.531C702.388 60.2326 702.515 60.9301 702.775 61.5818C703.036 62.2334 703.425 62.8259 703.921 63.3236C704.416 63.8217 705.008 64.215 705.659 64.4799C706.31 64.7448 707.008 64.8759 707.711 64.8655C709.499 64.8752 711.171 63.9888 712.164 62.5058L710.341 61.2506C710.068 61.7036 709.683 62.0781 709.222 62.3377C708.761 62.5973 708.241 62.7331 707.712 62.7317C707.167 62.7529 706.629 62.6098 706.166 62.321C705.704 62.0323 705.339 61.6112 705.12 61.1125L712.278 58.1629L712.013 57.5981ZM704.718 59.3804C704.692 58.9918 704.744 58.6019 704.871 58.2337C704.998 57.8655 705.198 57.5264 705.458 57.2364C705.718 56.9464 706.034 56.7113 706.386 56.5449C706.739 56.3785 707.121 56.2842 707.51 56.2676C707.916 56.2407 708.321 56.3334 708.674 56.5342C709.027 56.7351 709.314 57.0351 709.498 57.3972L704.718 59.3804ZM698.906 64.5517H701.258V48.8621H698.906V64.5517ZM695.057 55.389H694.97C694.615 54.9932 694.18 54.6769 693.695 54.4606C693.209 54.2443 692.683 54.1329 692.151 54.1338C690.777 54.1993 689.481 54.7905 688.532 55.7849C687.583 56.7794 687.053 58.1007 687.052 59.475C687.053 60.8492 687.583 62.1703 688.532 63.1645C689.482 64.1587 690.777 64.7498 692.151 64.8153C692.684 64.8244 693.212 64.7167 693.699 64.4998C694.186 64.283 694.619 63.9622 694.969 63.5601H695.044V64.3258C695.044 66.3717 693.95 67.4637 692.189 67.4637C691.603 67.4503 691.034 67.2629 690.554 66.9254C690.075 66.5879 689.707 66.1155 689.497 65.5684L687.447 66.4219C687.834 67.3591 688.492 68.1596 689.336 68.7209C690.181 69.2822 691.174 69.5787 692.189 69.5724C694.944 69.5724 697.22 67.9532 697.22 64.012V54.5103H695.057V55.389ZM692.365 62.7694C691.554 62.6984 690.799 62.3266 690.249 61.7272C689.699 61.1278 689.394 60.3442 689.393 59.531C689.393 57.8462 690.683 56.4414 692.365 56.2927C693.178 56.3342 693.94 56.7021 694.477 57.3113C695.014 57.9206 695.283 58.721 695.221 59.531C695.255 59.9337 695.207 60.339 695.08 60.7226C694.953 61.1061 694.749 61.4599 694.481 61.7623C694.213 62.0652 693.886 62.3106 693.52 62.4837C693.154 62.6568 692.757 62.754 692.352 62.7694H692.365ZM723.033 48.8621H717.409V64.5517H719.762V58.6022H723.045C723.941 58.6665 724.838 58.4832 725.636 58.0725C726.435 57.6617 727.105 57.0393 727.573 56.2734C728.041 55.5081 728.288 54.6288 728.288 53.7321C728.288 52.8355 728.041 51.9562 727.573 51.1909C727.105 50.425 726.435 49.8026 725.636 49.3918C724.838 48.9811 723.941 48.7978 723.045 48.8621H723.033ZM723.033 56.3931H719.749V51.0461H723.083C723.437 51.0458 723.788 51.1152 724.115 51.2504C724.442 51.3855 724.739 51.5837 724.99 51.8337C725.241 52.0837 725.439 52.3805 725.575 52.7072C725.711 53.0339 725.781 53.3842 725.781 53.7379C725.781 54.0918 725.711 54.4421 725.575 54.7689C725.44 55.0958 725.241 55.3927 724.99 55.6428C724.74 55.8929 724.442 56.0911 724.115 56.2264C723.788 56.3616 723.437 56.431 723.083 56.4308L723.033 56.3931ZM737.537 54.1338C736.681 54.0822 735.828 54.2817 735.084 54.7075C734.34 55.1334 733.736 55.7673 733.347 56.5312L735.435 57.3972C735.641 57.0185 735.953 56.7077 736.333 56.5027C736.713 56.2977 737.144 56.2073 737.574 56.2425C737.872 56.2078 738.174 56.2328 738.463 56.3159C738.752 56.399 739.021 56.5387 739.255 56.7267C739.489 56.9148 739.684 57.1474 739.827 57.4112C739.97 57.675 740.06 57.9647 740.09 58.2633V58.4265C739.334 58.0272 738.491 57.8203 737.636 57.824C735.385 57.824 733.108 59.0792 733.108 61.351C733.131 61.8357 733.25 62.3109 733.46 62.7486C733.669 63.1862 733.964 63.5775 734.328 63.899C734.691 64.2208 735.116 64.4665 735.576 64.6217C736.036 64.7769 736.523 64.8385 737.007 64.8028C737.6 64.8455 738.192 64.7282 738.724 64.4632C739.255 64.1982 739.705 63.7952 740.027 63.2965H740.102V64.5517H742.366V58.5143C742.366 55.7655 740.279 54.1714 737.599 54.1714L737.536 54.1338H737.537ZM737.247 62.7317C736.48 62.7317 735.411 62.3426 735.411 61.4012C735.411 60.1461 736.745 59.7319 737.926 59.7319C738.673 59.7125 739.412 59.896 740.065 60.259C739.986 60.9391 739.663 61.5676 739.157 62.029C738.651 62.4903 737.995 62.7532 737.31 62.7694L737.247 62.7317ZM750.619 54.5103L747.926 61.3134H747.851L745.059 54.5103H742.542L746.731 64.0245L744.342 69.3088H746.794L753.235 54.5103H750.62H750.619ZM729.473 64.5517H731.825V48.8621H729.474V64.5517H729.473Z" fill="white"/>
<path d="M654.616 39.7495C654.637 40.21 654.564 40.67 654.402 41.1016C654.24 41.5331 653.992 41.9272 653.672 42.2599C653.315 42.6298 652.885 42.9204 652.408 43.1129C651.931 43.3054 651.419 43.3954 650.905 43.377C650.125 43.3713 649.365 43.1359 648.719 42.7004C648.072 42.2648 647.569 41.6484 647.272 40.9284C646.975 40.2087 646.897 39.4173 647.049 38.6537C647.201 37.8901 647.575 37.1884 648.125 36.6367C648.486 36.2685 648.92 35.9784 649.398 35.7841C649.876 35.5898 650.389 35.4955 650.905 35.507C651.437 35.5053 651.963 35.6121 652.452 35.8208C652.907 36.0043 653.312 36.292 653.635 36.6618L652.968 37.327C652.717 37.0289 652.4 36.7933 652.042 36.6386C651.684 36.484 651.294 36.4145 650.905 36.4359C650.512 36.4338 650.123 36.511 649.761 36.6628C649.398 36.8146 649.07 37.0379 648.796 37.3193C648.523 37.6005 648.309 37.934 648.168 38.2999C648.026 38.6657 647.961 39.0564 647.974 39.4483C647.966 40.0336 648.132 40.6082 648.45 41.0995C648.769 41.5908 649.226 41.9767 649.764 42.2087C650.302 42.4411 650.897 42.5092 651.474 42.4044C652.051 42.2996 652.584 42.0266 653.006 41.6197C653.392 41.2007 653.616 40.6581 653.634 40.0884H650.905V39.1847H654.565C654.599 39.371 654.616 39.5603 654.616 39.7495ZM660.377 36.6116H656.981V38.9964H660.075V39.9001H656.981V42.285H660.377V43.2138H655.974V35.6828H660.377V36.6116ZM664.503 43.2138H663.534V36.6116H661.421V35.6828H666.665V36.6116H664.502V43.2138H664.503ZM670.364 43.2138V35.6828H671.333V43.2138H670.364ZM675.635 43.2138H674.666V36.6116H672.553V35.6828H677.736V36.6116H675.635V43.2138ZM687.559 42.2348C686.824 42.9644 685.829 43.3738 684.792 43.3738C683.756 43.3738 682.761 42.9644 682.025 42.2348C681.311 41.4802 680.912 40.4809 680.912 39.442C680.912 38.4032 681.311 37.4038 682.025 36.6492C682.388 36.2847 682.819 35.9954 683.294 35.798C683.769 35.6005 684.278 35.4989 684.793 35.4989C685.307 35.4989 685.817 35.6005 686.292 35.798C686.766 35.9954 687.198 36.2847 687.56 36.6492C688.278 37.4023 688.678 38.4022 688.678 39.442C688.678 40.4818 688.278 41.4817 687.56 42.2348H687.559ZM682.742 41.6072C683.287 42.1484 684.024 42.4522 684.793 42.4522C685.561 42.4522 686.298 42.1484 686.843 41.6072C687.381 41.0163 687.678 40.2466 687.678 39.4483C687.678 38.6499 687.381 37.8802 686.843 37.2894C686.298 36.7481 685.561 36.4443 684.793 36.4443C684.024 36.4443 683.287 36.7481 682.742 37.2894C682.205 37.8802 681.907 38.6499 681.907 39.4483C681.907 40.2466 682.205 41.0163 682.742 41.6072ZM690.038 43.2138V35.6828H691.221L694.893 41.5444V35.6828H695.862V43.2138H694.856L691.02 37.076V43.2138H690.038Z" fill="white" stroke="white" stroke-width="0.5"/>
<path d="M608.099 36.3606C607.689 36.8511 607.481 37.4796 607.519 38.1178V65.8822C607.482 66.5195 607.688 67.149 608.099 67.6395L608.186 67.7273L623.772 52.1883V51.8243L608.186 36.2727L608.099 36.3606Z" fill="url(#paint0_linear)"/>
<path d="M628.93 57.3721L623.772 52.1883V51.8243L628.93 46.6279L629.043 46.6906L635.219 50.1926C636.98 51.1841 636.98 52.8159 635.219 53.82L629.068 57.3094L628.93 57.3721Z" fill="url(#paint1_linear)"/>
<path d="M629.08 57.2968L623.772 52L608.099 67.6394C608.458 67.9542 608.916 68.1339 609.393 68.1477C609.871 68.1614 610.338 68.0083 610.715 67.7148L629.094 57.2968" fill="url(#paint2_linear)"/>
<path d="M629.08 46.7032L610.703 36.2852C610.327 35.9914 609.859 35.8382 609.381 35.8519C608.904 35.8657 608.446 36.0456 608.087 36.3606L623.772 52L629.08 46.7032Z" fill="url(#paint3_linear)"/>
<path opacity="0.2" d="M628.93 57.1839L610.702 67.539C610.339 67.8099 609.898 67.9563 609.445 67.9563C608.991 67.9563 608.55 67.8099 608.187 67.539L608.099 67.6269L608.186 67.7148C608.931 68.2748 609.958 68.2748 610.702 67.7148L629.081 57.2968L628.93 57.1839Z" fill="black"/>
<path opacity="0.12" d="M608.098 67.4637C607.689 66.9729 607.482 66.3444 607.52 65.7065V65.8948C607.482 66.532 607.688 67.1615 608.099 67.652L608.186 67.5641L608.099 67.4637H608.098ZM635.22 53.6317L628.93 57.1839L629.044 57.2968L635.22 53.8074C635.57 53.6433 635.871 53.3898 636.092 53.0724C636.312 52.7551 636.445 52.3851 636.477 52C636.406 52.35 636.256 52.6791 636.038 52.962C635.82 53.2449 635.54 53.474 635.219 53.6317H635.22Z" fill="black"/>
<path opacity="0.25" d="M610.702 36.461L635.219 50.3683C635.54 50.526 635.82 50.7551 636.038 51.038C636.256 51.3209 636.406 51.65 636.477 52C636.445 51.6148 636.312 51.2448 636.091 50.9274C635.87 50.6101 635.569 50.3566 635.219 50.1926L610.702 36.2852C608.942 35.2937 607.508 36.1221 607.508 38.1303V38.3186C607.545 36.2978 608.954 35.4694 610.702 36.461Z" fill="white"/>
<path d="M148 121.008L154.24 114.863C154.481 114.629 154.672 114.349 154.803 114.039C154.933 113.73 155 113.398 155 113.062C155 112.726 154.933 112.394 154.803 112.085C154.672 111.775 154.481 111.495 154.24 111.261C153.739 110.773 153.067 110.5 152.368 110.5C151.668 110.5 150.996 110.773 150.495 111.261L148 113.72L145.505 111.26C145.004 110.772 144.332 110.499 143.633 110.499C142.933 110.499 142.261 110.772 141.76 111.26C141.519 111.494 141.328 111.774 141.197 112.084C141.067 112.393 141 112.725 141 113.061C141 113.397 141.067 113.729 141.197 114.038C141.328 114.348 141.519 114.628 141.76 114.862L148 121.008ZM146.908 109.836L148 110.911L149.092 109.836C149.967 108.98 151.143 108.5 152.368 108.5C153.592 108.5 154.768 108.98 155.643 109.836C156.073 110.256 156.414 110.758 156.647 111.312C156.88 111.866 157 112.461 157 113.062C157 113.663 156.88 114.258 156.647 114.812C156.414 115.366 156.073 115.868 155.643 116.288L148.546 123.278C148.4 123.421 148.204 123.501 148 123.501C147.796 123.501 147.6 123.421 147.454 123.278L140.357 116.288C139.927 115.868 139.586 115.366 139.353 114.812C139.12 114.258 139 113.663 139 113.062C139 112.461 139.12 111.866 139.353 111.312C139.586 110.758 139.927 110.256 140.357 109.836C141.232 108.98 142.408 108.5 143.633 108.5C144.857 108.5 146.033 108.98 146.908 109.836Z" fill="black"/>
<g clip-path="url(#clip2)">
<path d="M176 106.64H181.231V108.631C181.521 108.12 181.911 107.673 182.378 107.315C183.188 106.64 184.504 106 186.461 106C187.743 106 189.359 106.338 190.748 107.787C191.195 108.246 191.57 108.769 191.859 109.339C192.233 108.74 192.687 108.195 193.21 107.72C194.324 106.708 195.842 106 197.799 106C199.115 106 201.204 106.304 202.726 107.889C204.481 109.744 204.751 110.992 204.751 115.14V125.36H199.149V115.41C199.149 114.628 199.149 113.623 198.779 112.779C198.441 111.902 197.731 111.262 196.281 111.262C194.729 111.262 193.952 111.97 193.58 112.813C193.176 113.655 193.176 114.6 193.176 115.14V125.36H187.574V115.174C187.574 114.668 187.574 113.689 187.236 112.847C186.871 111.97 186.191 111.262 184.775 111.262C183.189 111.262 182.418 112.004 182.008 112.913C181.598 113.823 181.603 114.836 181.603 115.41V125.36H176V106.64Z" fill="#303AB2"/>
<path d="M228.233 125.36H222.626V123.339C221.614 125.164 219.286 126.004 217.093 126.004C211.153 126.004 207.677 121.35 207.677 115.986C207.682 109.845 212.104 106 217.098 106C220.168 106 221.89 107.484 222.626 108.631V106.64H228.228L228.233 125.36ZM213.285 116.084C213.285 117.804 214.566 120.777 217.941 120.777C219.932 120.777 221.148 119.834 221.856 118.691C222.309 117.965 222.573 117.139 222.626 116.286C222.692 115.438 222.531 114.588 222.16 113.822C221.552 112.543 220.269 111.228 217.911 111.228C214.706 111.228 213.289 113.926 213.289 116.051L213.285 116.084Z" fill="#303AB2"/>
<path d="M247.165 115.35L254.514 106.64H246.869L243.117 111.47L239.388 106.673L239.365 106.64H231.718L239.069 115.35L231.234 125.36H238.715L243.117 119.662L247.494 125.327L247.518 125.36H255L247.165 115.35Z" fill="#E4002B"/>
</g>
<path fill-rule="evenodd" clip-rule="evenodd" d="M284.208 120.562L286.031 118.827C286.271 118.587 286.627 118.507 286.938 118.613C287.962 118.95 289.033 119.121 290.111 119.12C290.6 119.12 291 119.52 291 120.009V123.111C291 123.6 290.6 124.004 290.111 124C286.109 123.981 282.276 122.383 279.447 119.553C276.617 116.724 275.019 112.891 275 108.889C275 108.653 275.094 108.427 275.261 108.261C275.427 108.094 275.653 108 275.889 108H279C279.489 108 279.889 108.4 279.889 108.889C279.889 110 280.067 111.067 280.396 112.062C280.446 112.219 280.452 112.387 280.413 112.547C280.373 112.707 280.29 112.853 280.173 112.969L278.389 114.759C279.669 117.275 281.692 119.273 284.208 120.562Z" fill="black"/>
<path fill-rule="evenodd" clip-rule="evenodd" d="M329.222 107.5H316.778C315.79 107.5 315 108.271 315 109.214V121.214C315 122.157 315.791 122.929 316.778 122.929H320.333L323 125.5L325.667 122.929H329.222C330.2 122.929 331 122.157 331 121.214V109.214C331 108.271 330.2 107.5 329.222 107.5Z" fill="black"/>
<path d="M320.332 113.085C320.375 111.467 321.507 110.48 323.027 110.48C324.547 110.48 325.621 111.609 325.621 112.846C325.621 114.083 325.169 114.406 324.193 115.293C323.217 116.181 322.977 117.034 322.977 117.699" stroke="white" stroke-width="2" stroke-linecap="round"/>
<path d="M324 120.8C324 120.248 323.552 119.8 323 119.8C322.448 119.8 322 120.248 322 120.8C322 121.352 322.448 121.8 323 121.8C323.552 121.8 324 121.352 324 120.8Z" fill="white"/>
<path fill-rule="evenodd" clip-rule="evenodd" d="M370.2 110H355.8C355.36 110 355.009 110.343 355.009 110.75L355 121.25C355 121.654 355.356 122 355.8 122H370.2C370.644 122 371 121.654 371 121.25V110.75C371 110.346 370.644 110 370.2 110Z" stroke="black" stroke-width="2"/>
<path d="M355 111L363 116L371 111" stroke="black" stroke-width="2" stroke-linecap="round" stroke-linejoin="round"/>
<path d="M404.477 125.5V116.845H407.44L407.883 113.457H404.477V111.3C404.477 110.32 404.755 109.656 406.18 109.656H408V106.631C407.122 106.541 406.24 106.498 405.358 106.501C402.74 106.501 400.955 108.074 400.955 110.965V113.457H398V116.845H400.955V125.5H404.477Z" fill="black"/>
<path d="M439.089 124.5C447.019 124.5 451.354 117.958 451.354 112.288C451.354 112.102 451.354 111.915 451.345 111.737C452.189 111.128 452.919 110.375 453.5 109.512C452.712 109.857 451.878 110.085 451.024 110.188C451.924 109.654 452.598 108.809 452.919 107.812C452.072 108.31 451.147 108.661 450.183 108.852C449.779 108.423 449.291 108.082 448.75 107.849C448.209 107.616 447.625 107.498 447.036 107.5C444.658 107.5 442.727 109.423 442.727 111.79C442.727 112.128 442.763 112.458 442.844 112.77C441.131 112.686 439.455 112.243 437.924 111.47C436.393 110.697 435.042 109.611 433.957 108.283C433.577 108.937 433.377 109.68 433.377 110.437C433.377 111.924 434.136 113.241 435.298 114.007C434.615 113.988 433.946 113.804 433.349 113.472V113.526C433.349 115.608 434.833 117.336 436.809 117.736C436.173 117.908 435.506 117.932 434.86 117.806C435.135 118.661 435.671 119.408 436.393 119.943C437.114 120.477 437.985 120.773 438.883 120.788C437.073 122.198 434.778 122.835 432.5 122.56C434.462 123.832 436.751 124.506 439.089 124.5Z" fill="black"/>
<path d="M478.952 107.076C477.634 107.089 476.375 107.621 475.447 108.557C474.52 109.494 474 110.758 474 112.076V119.943C474 121.269 474.527 122.541 475.464 123.479C476.402 124.416 477.674 124.943 479 124.943H487C488.326 124.943 489.598 124.416 490.536 123.479C491.473 122.541 492 121.269 492 119.943V112V111.952C491.994 111.295 491.858 110.646 491.601 110.042C491.344 109.438 490.97 108.89 490.502 108.43C490.033 107.971 489.478 107.608 488.869 107.362C488.26 107.117 487.609 106.994 486.952 107L478.952 107.076Z" stroke="black" stroke-width="2"/>
<path d="M488.193 111.896C488.838 111.896 489.36 111.374 489.36 110.729C489.36 110.084 488.838 109.562 488.193 109.562C487.548 109.562 487.026 110.084 487.026 110.729C487.026 111.374 487.548 111.896 488.193 111.896Z" fill="black"/>
<path d="M483 120.068C485.278 120.068 487.125 118.221 487.125 115.943C487.125 113.665 485.278 111.818 483 111.818C480.722 111.818 478.875 113.665 478.875 115.943C478.875 118.221 480.722 120.068 483 120.068Z" stroke="black" stroke-width="2"/>
<rect x="513" y="108" width="20" height="2" rx="1" fill="#242424"/>
<rect x="513" y="115" width="20" height="2" rx="1" fill="#242424"/>
<rect x="513" y="122" width="20" height="2" rx="1" fill="#242424"/>
<path d="M563 114.586L569.293 108.293C569.482 108.111 569.734 108.01 569.996 108.012C570.259 108.015 570.509 108.12 570.695 108.305C570.88 108.491 570.985 108.741 570.988 109.004C570.99 109.266 570.889 109.518 570.707 109.707L564.414 116L570.707 122.293C570.889 122.482 570.99 122.734 570.988 122.996C570.985 123.259 570.88 123.509 570.695 123.695C570.509 123.88 570.259 123.985 569.996 123.988C569.734 123.99 569.482 123.889 569.293 123.707L563 117.414L556.707 123.707C556.615 123.803 556.504 123.879 556.382 123.931C556.26 123.984 556.129 124.011 555.996 124.012C555.864 124.013 555.732 123.988 555.609 123.938C555.486 123.888 555.375 123.813 555.281 123.719C555.187 123.626 555.112 123.514 555.062 123.391C555.012 123.268 554.987 123.136 554.988 123.004C554.989 122.871 555.016 122.74 555.069 122.618C555.121 122.496 555.197 122.385 555.293 122.293L561.586 116L555.293 109.707C555.111 109.518 555.01 109.266 555.012 109.004C555.015 108.741 555.12 108.491 555.305 108.305C555.491 108.12 555.741 108.015 556.004 108.012C556.266 108.01 556.518 108.111 556.707 108.293L563 114.586Z" fill="white"/>
<defs>
<linearGradient id="paint0_linear" x1="617.442" y1="37.8291" x2="604.095" y2="51.1691" gradientUnits="userSpaceOnUse">
<stop stop-color="#00A0FF"/>
<stop offset="0.01" stop-color="#00A1FF"/>
<stop offset="0.26" stop-color="#00BEFF"/>
<stop offset="0.51" stop-color="#00D2FF"/>
<stop offset="0.76" stop-color="#00DFFF"/>
<stop offset="1" stop-color="#00E3FF"/>
</linearGradient>
<linearGradient id="paint1_linear" x1="637.521" y1="52" x2="607.093" y2="52" gradientUnits="userSpaceOnUse">
<stop stop-color="#FFE000"/>
<stop offset="0.41" stop-color="#FFBD00"/>
<stop offset="0.78" stop-color="#FFA500"/>
<stop offset="1" stop-color="#FF9C00"/>
</linearGradient>
<linearGradient id="paint2_linear" x1="626.201" y1="57.0001" x2="603.411" y2="79.768" gradientUnits="userSpaceOnUse">
<stop stop-color="#FF3A44"/>
<stop offset="1" stop-color="#C31162"/>
</linearGradient>
<linearGradient id="paint3_linear" x1="604.149" y1="33.9676" x2="614.322" y2="44.1339" gradientUnits="userSpaceOnUse">
<stop stop-color="#32A071"/>
<stop offset="0.07" stop-color="#2DA771"/>
<stop offset="0.48" stop-color="#15CF74"/>
<stop offset="0.8" stop-color="#06E775"/>
<stop offset="1" stop-color="#00F076"/>
</linearGradient>
<clipPath id="clip0">
<rect width="103.478" height="35" fill="white" transform="translate(104 34)"/>
</clipPath>
<clipPath id="clip1">
<rect width="76.8696" height="26" fill="white" transform="translate(224 39)"/>
</clipPath>
<clipPath id="clip2">
<rect width="79" height="20" fill="white" transform="translate(176 106)"/>
</clipPath>
</defs>
</svg>
